<?xml version="1.0" encoding="UTF-8"?>
<svg xmlns="http://www.w3.org/2000/svg" xmlns:xlink="http://www.w3.org/1999/xlink" width="48px" height="48px" viewBox="0 0 48 48" version="1.1">
<g id="surface1">
<path style=" stroke:none;fill-rule:nonzero;fill:rgb(15.294118%,19.607843%,22.745098%);fill-opacity:1;" d="M 42.925781 8.613281 L 39.003906 4.714844 C 38.785156 4.496094 38.484375 4.378906 38.175781 4.378906 L 6.246094 4.378906 C 5.597656 4.378906 5.070312 4.902344 5.070312 5.550781 L 5.070312 42.320312 C 5.070312 42.964844 5.597656 43.496094 6.246094 43.496094 L 42.097656 43.496094 C 42.746094 43.496094 43.273438 42.964844 43.273438 42.320312 L 43.273438 9.445312 C 43.273438 9.136719 43.148438 8.832031 42.925781 8.613281 Z M 42.925781 8.613281 "/>
<path style=" stroke:none;fill-rule:nonzero;fill:rgb(100%,100%,100%);fill-opacity:1;" d="M 17.414062 6.722656 L 34.363281 6.722656 L 34.363281 18.066406 C 34.363281 18.246094 34.214844 18.390625 34.027344 18.390625 L 17.753906 18.390625 C 17.566406 18.390625 17.414062 18.242188 17.414062 18.066406 Z M 17.414062 6.722656 "/>
<path style=" stroke:none;fill-rule:nonzero;fill:rgb(47.45098%,80%,74.901961%);fill-opacity:1;" d="M 40.925781 41.144531 L 7.417969 41.144531 L 7.417969 6.722656 L 15.847656 6.722656 L 15.847656 18.066406 C 15.847656 19.105469 16.707031 19.953125 17.753906 19.953125 L 34.027344 19.953125 C 35.074219 19.953125 35.933594 19.105469 35.933594 18.066406 L 35.933594 6.722656 L 37.691406 6.722656 C 38.207031 7.238281 40.402344 9.417969 40.925781 9.933594 Z M 40.925781 41.144531 "/>
<path style=" stroke:none;fill-rule:nonzero;fill:rgb(15.294118%,19.607843%,22.745098%);fill-opacity:1;" d="M 12.660156 22.144531 C 11.128906 22.144531 9.878906 23.257812 9.878906 24.632812 L 9.878906 36.667969 C 9.878906 38.042969 11.128906 39.164062 12.660156 39.164062 L 35.667969 39.164062 C 37.210938 39.164062 38.464844 38.042969 38.464844 36.667969 L 38.464844 24.632812 C 38.464844 23.257812 37.210938 22.144531 35.667969 22.144531 Z M 12.660156 22.144531 "/>
<path style=" stroke:none;fill-rule:nonzero;fill:rgb(95.686275%,80.784314%,45.098039%);fill-opacity:1;" d="M 11.441406 36.667969 L 11.441406 24.632812 C 11.441406 24.132812 12 23.707031 12.660156 23.707031 L 35.667969 23.707031 C 36.019531 23.707031 36.351562 23.820312 36.585938 24.023438 C 36.703125 24.121094 36.902344 24.332031 36.902344 24.632812 L 36.902344 36.667969 C 36.902344 37.171875 36.332031 37.597656 35.667969 37.597656 L 12.660156 37.597656 C 12 37.597656 11.441406 37.171875 11.441406 36.667969 Z M 11.441406 36.667969 "/>
<path style=" stroke:none;fill-rule:nonzero;fill:rgb(15.294118%,19.607843%,22.745098%);fill-opacity:1;" d="M 26.84375 8.144531 C 26.414062 8.144531 26.0625 8.492188 26.0625 8.925781 L 26.0625 16.339844 C 26.0625 16.777344 26.414062 17.128906 26.84375 17.128906 L 31.792969 17.128906 C 32.226562 17.128906 32.574219 16.777344 32.574219 16.339844 L 32.574219 8.925781 C 32.574219 8.492188 32.226562 8.144531 31.792969 8.144531 Z M 26.84375 8.144531 "/>
<path style=" stroke:none;fill-rule:nonzero;fill:rgb(100%,100%,100%);fill-opacity:1;" d="M 31.011719 9.707031 L 31.011719 15.558594 L 27.628906 15.558594 L 27.628906 9.707031 Z M 31.011719 9.707031 "/>
<path style=" stroke:none;fill-rule:nonzero;fill:rgb(15.294118%,19.607843%,22.745098%);fill-opacity:1;" d="M 30.429688 33.933594 L 17.910156 33.933594 C 17.332031 33.933594 16.859375 33.464844 16.859375 32.886719 C 16.859375 32.300781 17.332031 31.835938 17.910156 31.835938 L 30.429688 31.835938 C 31.011719 31.835938 31.480469 32.300781 31.480469 32.886719 C 31.480469 33.464844 31.011719 33.933594 30.429688 33.933594 Z M 30.429688 29.375 L 17.910156 29.375 C 17.332031 29.375 16.859375 28.90625 16.859375 28.328125 C 16.859375 27.746094 17.332031 27.277344 17.910156 27.277344 L 30.429688 27.277344 C 31.011719 27.277344 31.480469 27.746094 31.480469 28.328125 C 31.480469 28.90625 31.011719 29.375 30.429688 29.375 Z M 30.429688 29.375 "/>
</g>
</svg>
