<?xml version="1.0" encoding="UTF-8"?>
<svg xmlns="http://www.w3.org/2000/svg" xmlns:xlink="http://www.w3.org/1999/xlink" width="64pt" height="64pt" viewBox="0 0 64 64" version="1.1">
<g id="surface1">
<path style=" stroke:none;fill-rule:nonzero;fill:rgb(15.294118%,19.607843%,22.745098%);fill-opacity:1;" d="M 57.234375 11.484375 L 52.003906 6.285156 C 51.710938 5.996094 51.3125 5.835938 50.902344 5.835938 L 8.328125 5.835938 C 7.460938 5.835938 6.761719 6.535156 6.761719 7.398438 L 6.761719 56.425781 C 6.761719 57.289062 7.460938 57.992188 8.328125 57.992188 L 56.132812 57.992188 C 56.996094 57.992188 57.699219 57.289062 57.699219 56.425781 L 57.699219 12.59375 C 57.699219 12.179688 57.53125 11.777344 57.234375 11.484375 Z M 57.234375 11.484375 "/>
<path style=" stroke:none;fill-rule:nonzero;fill:rgb(100%,100%,100%);fill-opacity:1;" d="M 23.21875 8.964844 L 45.820312 8.964844 L 45.820312 24.085938 C 45.820312 24.328125 45.621094 24.519531 45.367188 24.519531 L 23.671875 24.519531 C 23.421875 24.519531 23.21875 24.324219 23.21875 24.085938 Z M 23.21875 8.964844 "/>
<path style=" stroke:none;fill-rule:nonzero;fill:rgb(47.45098%,80%,74.901961%);fill-opacity:1;" d="M 54.566406 54.859375 L 9.890625 54.859375 L 9.890625 8.964844 L 21.128906 8.964844 L 21.128906 24.085938 C 21.128906 25.476562 22.273438 26.605469 23.671875 26.605469 L 45.367188 26.605469 C 46.765625 26.605469 47.910156 25.476562 47.910156 24.085938 L 47.910156 8.964844 L 50.253906 8.964844 C 50.941406 9.652344 53.871094 12.558594 54.566406 13.246094 Z M 54.566406 54.859375 "/>
<path style=" stroke:none;fill-rule:nonzero;fill:rgb(15.294118%,19.607843%,22.745098%);fill-opacity:1;" d="M 16.882812 29.523438 C 14.835938 29.523438 13.171875 31.011719 13.171875 32.84375 L 13.171875 48.890625 C 13.171875 50.726562 14.835938 52.21875 16.882812 52.21875 L 47.558594 52.21875 C 49.613281 52.21875 51.289062 50.726562 51.289062 48.890625 L 51.289062 32.84375 C 51.289062 31.011719 49.613281 29.523438 47.558594 29.523438 Z M 16.882812 29.523438 "/>
<path style=" stroke:none;fill-rule:nonzero;fill:rgb(95.686275%,80.784314%,45.098039%);fill-opacity:1;" d="M 15.257812 48.890625 L 15.257812 32.84375 C 15.257812 32.175781 16 31.609375 16.882812 31.609375 L 47.558594 31.609375 C 48.023438 31.609375 48.46875 31.761719 48.78125 32.03125 C 48.9375 32.160156 49.203125 32.445312 49.203125 32.84375 L 49.203125 48.890625 C 49.203125 49.5625 48.445312 50.128906 47.558594 50.128906 L 16.882812 50.128906 C 16 50.128906 15.257812 49.5625 15.257812 48.890625 Z M 15.257812 48.890625 "/>
<path style=" stroke:none;fill-rule:nonzero;fill:rgb(15.294118%,19.607843%,22.745098%);fill-opacity:1;" d="M 35.792969 10.859375 C 35.21875 10.859375 34.75 11.324219 34.75 11.902344 L 34.75 21.789062 C 34.75 22.367188 35.21875 22.835938 35.792969 22.835938 L 42.390625 22.835938 C 42.96875 22.835938 43.433594 22.367188 43.433594 21.789062 L 43.433594 11.902344 C 43.433594 11.324219 42.96875 10.859375 42.390625 10.859375 Z M 35.792969 10.859375 "/>
<path style=" stroke:none;fill-rule:nonzero;fill:rgb(100%,100%,100%);fill-opacity:1;" d="M 41.347656 12.945312 L 41.347656 20.746094 L 36.835938 20.746094 L 36.835938 12.945312 Z M 41.347656 12.945312 "/>
<path style=" stroke:none;fill-rule:nonzero;fill:rgb(15.294118%,19.607843%,22.745098%);fill-opacity:1;" d="M 40.574219 45.246094 L 23.882812 45.246094 C 23.109375 45.246094 22.480469 44.617188 22.480469 43.847656 C 22.480469 43.070312 23.109375 42.449219 23.882812 42.449219 L 40.574219 42.449219 C 41.347656 42.449219 41.976562 43.070312 41.976562 43.847656 C 41.976562 44.617188 41.347656 45.246094 40.574219 45.246094 Z M 40.574219 39.167969 L 23.882812 39.167969 C 23.109375 39.167969 22.480469 38.542969 22.480469 37.769531 C 22.480469 36.992188 23.109375 36.367188 23.882812 36.367188 L 40.574219 36.367188 C 41.347656 36.367188 41.976562 36.992188 41.976562 37.769531 C 41.976562 38.542969 41.347656 39.167969 40.574219 39.167969 Z M 40.574219 39.167969 "/>
</g>
</svg>
